<svg xmlns="http://www.w3.org/2000/svg" width="200" height="200" viewBox="0 0 200 200">
  <defs>
    <!-- gradient dasar hijau lembut -->
    <linearGradient id="g" x1="0" x2="1" y1="0" y2="1">
      <stop offset="0" stop-color="#e6efe7"></stop>
      <stop offset="1" stop-color="#e9f3ea"></stop>
    </linearGradient>

    <!-- ikon bubble kecil -->
    <symbol id="bubble" viewBox="0 0 24 24">
      <path d="M3 5.5C3 4.12 4.12 3 5.5 3h13C20.88 3 22 4.12 22 5.5v7c0 1.38-1.12 2.5-2.5 2.5H9.8L5 19.5V5.5z" fill="rgba(0,0,0,0.05)"></path>
    </symbol>

    <!-- titik kecil -->
    <circle id="dot" r="1.6" fill="rgba(0,0,0,0.05)"></circle>
  </defs>

  <!-- background -->
  <rect width="100%" height="100%" fill="url(#g)"></rect>

  <!-- bubbles lebih banyak -->
  <use href="#bubble" x="10" y="15" width="30" height="30" transform="rotate(-8 25 30)"></use>
  <use href="#bubble" x="70" y="20" width="28" height="28" transform="rotate(5 84 34)"></use>
  <use href="#bubble" x="130" y="10" width="26" height="26" transform="rotate(-4 143 23)"></use>
  <use href="#bubble" x="20" y="80" width="32" height="32" transform="rotate(10 36 96)"></use>
  <use href="#bubble" x="90" y="75" width="26" height="26" transform="rotate(-6 103 88)"></use>
  <use href="#bubble" x="150" y="60" width="30" height="30" transform="rotate(7 165 75)"></use>
  <use href="#bubble" x="40" y="140" width="28" height="28" transform="rotate(-5 54 154)"></use>
  <use href="#bubble" x="110" y="135" width="30" height="30" transform="rotate(8 125 150)"></use>
  <use href="#bubble" x="160" y="120" width="26" height="26" transform="rotate(-10 173 133)"></use>
  <use href="#bubble" x="70" y="170" width="28" height="28" transform="rotate(5 84 184)"></use>

  <!-- dots lebih banyak -->
  <use href="#dot" x="15" y="40"></use>
  <use href="#dot" x="50" y="30"></use>
  <use href="#dot" x="85" y="50"></use>
  <use href="#dot" x="130" y="35"></use>
  <use href="#dot" x="170" y="25"></use>
  <use href="#dot" x="40" y="100"></use>
  <use href="#dot" x="80" y="90"></use>
  <use href="#dot" x="120" y="80"></use>
  <use href="#dot" x="160" y="70"></use>
  <use href="#dot" x="30" y="150"></use>
  <use href="#dot" x="70" y="130"></use>
  <use href="#dot" x="100" y="160"></use>
  <use href="#dot" x="140" y="145"></use>
  <use href="#dot" x="175" y="175"></use>
  <use href="#dot" x="20" y="180"></use>
</svg>
